<svg width="471" height="471" viewBox="0 0 471 471" fill="none" xmlns="http://www.w3.org/2000/svg">
<path fill-rule="evenodd" clip-rule="evenodd" d="M178.004 453.1H270.349C296.163 453.1 320.92 442.845 339.174 424.592L374.914 388.902C365.024 391.374 354.675 392.686 344.02 392.686H237.566L178.004 453.1Z" fill="#62BE19"/>
<path d="M344.099 156.627C404.299 156.627 453.1 205.464 453.1 265.707C453.1 325.95 404.299 374.786 344.099 374.786L236.059 374.786L236.059 156.627L344.099 156.627Z" fill="#CEF23F"/>
<path fill-rule="evenodd" clip-rule="evenodd" d="M79.4324 379.47L17.9004 441.002L17.9003 125.828L79.4324 64.4415V379.47Z" fill="#FF9330"/>
<path d="M97.3325 57.0571H218.159V374.786H97.3325V57.0571Z" fill="#FF5C16"/>
<path fill-rule="evenodd" clip-rule="evenodd" d="M31.6751 453.1H152.866L212.428 392.686H92.0884L31.6751 453.1Z" fill="#CF2500"/>
<path d="M356.886 78.3135C356.886 111.679 329.838 138.727 296.473 138.727C263.107 138.727 236.059 111.679 236.059 78.3135C236.059 44.9482 263.107 17.9002 296.473 17.9002C329.838 17.9002 356.886 44.9482 356.886 78.3135Z" fill="#60CFFF"/>
<path fill-rule="evenodd" clip-rule="evenodd" d="M296.505 138.727H296.473H296.44C263.09 138.709 236.059 111.668 236.059 78.3135C236.059 44.9482 263.107 17.9002 296.473 17.9002C329.838 17.9002 356.886 44.9482 356.886 78.3135C356.886 111.668 329.856 138.709 296.505 138.727ZM346.284 138.747C363.691 124.383 374.786 102.644 374.786 78.3135C374.786 35.0622 339.724 0 296.473 0C267.486 0 242.177 15.7488 228.636 39.1568H86.4629C81.9608 39.1568 77.6425 40.9427 74.4554 44.1227L4.11146 114.311C1.47925 116.938 5.21452e-08 120.503 1.44933e-07 124.222L8.5355e-06 460.468C8.5355e-06 460.931 -4.42181e-06 461.491 8.57217e-05 462.05C8.57217e-05 465.966 1.0258 467.333 1.67815 468.203C3.35629 470.441 6.71258 471 9.5095 471H270.349C300.911 471 330.221 458.859 351.831 437.249L429.208 359.873C454.875 336.638 471 303.055 471 265.707C471 196.334 415.369 139.955 346.284 138.747ZM17.9002 441.002L79.4323 379.47V64.4416L17.9002 125.828L17.9002 441.002ZM152.867 453.1H31.6764L92.0897 392.686H212.429L152.867 453.1ZM270.349 453.1H178.004L237.566 392.686H344.02C354.676 392.686 365.024 391.374 374.914 388.902L339.174 424.592C320.92 442.845 296.163 453.1 270.349 453.1ZM423.836 340.049L423.84 340.052C441.993 320.571 453.1 294.436 453.1 265.707C453.1 205.464 404.263 156.627 344.02 156.627H296.507H296.473H296.438L236.059 156.627L236.059 374.786H344.02C372.644 374.786 398.693 363.761 418.152 345.725L423.836 340.049ZM218.159 78.3658L218.159 78.3135L218.159 78.2613V57.057H97.3326V374.786H218.159V138.727V78.3658Z" fill="black"/>
</svg>
